<svg width="53" height="52" viewBox="0 0 53 52" fill="none" xmlns="http://www.w3.org/2000/svg">
<g clip-path="url(#clip0)">
<path d="M35.0881 26C33.715 26 32.4231 25.2688 31.7244 24.0988L26.5 15.4375L21.2838 24.0988C20.5769 25.2769 19.285 26.0081 17.9119 26.0081C17.5463 26.0081 17.1806 25.9594 16.8313 25.8538L5.70002 22.6688V37.1313C5.70002 38.3256 6.51252 39.3656 7.66627 39.65L25.2325 44.0456C26.0613 44.2488 26.9306 44.2488 27.7513 44.0456L45.3338 39.65C46.4875 39.3575 47.3 38.3175 47.3 37.1313V22.6688L36.1688 25.8456C35.8194 25.9513 35.4538 26 35.0881 26ZM52.3619 16.8838L48.1775 8.53125C47.9256 8.0275 47.3813 7.735 46.8206 7.80813L26.5 10.4L33.9506 22.7581C34.2594 23.27 34.8769 23.5138 35.4538 23.3513L51.5331 18.7606C52.3375 18.525 52.7275 17.6313 52.3619 16.8838ZM4.82252 8.53125L0.638146 16.8838C0.264396 17.6313 0.662521 18.525 1.45877 18.7525L17.5381 23.3431C18.115 23.5056 18.7325 23.2619 19.0413 22.75L26.5 10.4L6.17127 7.80813C5.61065 7.74313 5.0744 8.0275 4.82252 8.53125Z" fill="white"/>
</g>
<defs>
<clipPath id="clip0">
<rect width="52" height="52" fill="white" transform="translate(0.5)"/>
</clipPath>
</defs>
</svg>
